<svg enable-background="new 0 0 387 230" viewBox="0 0 387 230" xmlns="http://www.w3.org/2000/svg"><path d="m0 0h387v58h-387z" fill="#85bf5a"/><path d="m0 58h387v56h-387z" fill="#569146"/><path d="m0 114h387v60h-387z" fill="#85bf5a"/><path d="m0 174h387v56h-387z" fill="#569146"/><path d="m58.2 0h-58.2v230h57.5c62.9 0 116.2-50.7 116.2-114.7s-51.4-115.3-115.5-115.3z" fill="#15589f"/><g fill="#fff"><path d="m116.5 157.4c-5.4 0-8.1-2.7-10.5-5.1-2.2-2.2-4.1-4-7.9-4-3.9 0-5.7 1.9-7.9 4-2.4 2.4-5.1 5.1-10.5 5.1s-8.1-2.7-10.5-5.1c-2.2-2.2-4.1-4-7.9-4s-5.7 1.9-7.9 4c-2.4 2.4-5.1 5.1-10.5 5.1s-8.1-2.7-10.5-5.1c-2.2-2.2-4.1-4-7.9-4-1 0-1.8-.8-1.8-1.8s.8-1.8 1.8-1.8c5.4 0 8.1 2.7 10.5 5.1 2.2 2.2 4.1 4 7.9 4s5.7-1.9 7.9-4c2.4-2.4 5.1-5.1 10.5-5.1s8.1 2.7 10.5 5.1c2.2 2.2 4.1 4 7.9 4 3.9 0 5.7-1.9 7.9-4 2.4-2.4 5.1-5.1 10.5-5.1s8.1 2.7 10.5 5.1c2.2 2.2 4.1 4 7.9 4 3.9 0 5.7-1.9 7.9-4 2.4-2.4 5.1-5.1 10.5-5.1 1 0 1.8.8 1.8 1.8s-.8 1.8-1.8 1.8c-3.9 0-5.7 1.9-7.9 4-2.5 2.4-5.2 5.1-10.5 5.1z"/><path d="m116.5 120.6c-5.4 0-8.1-2.7-10.5-5.1-2.2-2.2-4.1-4-7.9-4-3.9 0-5.7 1.9-7.9 4-2.4 2.4-5.1 5.1-10.5 5.1s-8.1-2.7-10.5-5.1c-2.2-2.2-4.1-4-7.9-4s-5.7 1.9-7.9 4c-2.4 2.4-5.1 5.1-10.5 5.1s-8.1-2.7-10.5-5.1c-2.2-2.2-4.1-4-7.9-4-1 0-1.8-.8-1.8-1.8s.8-1.8 1.8-1.8c5.4 0 8.1 2.7 10.5 5.1 2.2 2.2 4.1 4 7.9 4s5.7-1.9 7.9-4c2.4-2.4 5.1-5.1 10.5-5.1s8.1 2.7 10.5 5.1c2.2 2.2 4.1 4 7.9 4 3.9 0 5.7-1.9 7.9-4 2.4-2.4 5.1-5.1 10.5-5.1s8.1 2.7 10.5 5.1c2.2 2.2 4.1 4 7.9 4 3.9 0 5.7-1.9 7.9-4 2.4-2.4 5.1-5.1 10.5-5.1 1 0 1.8.8 1.8 1.8s-.8 1.8-1.8 1.8c-3.9 0-5.7 1.9-7.9 4-2.5 2.4-5.2 5.1-10.5 5.1z"/><path d="m116.5 83.4c-5.4 0-8.1-2.7-10.5-5.1-2.2-2.2-4.1-4-7.9-4-3.9 0-5.7 1.9-7.9 4-2.4 2.4-5.1 5.1-10.5 5.1s-8.1-2.7-10.5-5.1c-2.2-2.2-4.1-4-7.9-4s-5.7 1.9-7.9 4c-2.4 2.4-5.1 5.1-10.5 5.1s-8.1-2.7-10.5-5.1c-2.2-2.2-4.1-4-7.9-4-1 0-1.8-.8-1.8-1.8s.8-1.8 1.8-1.8c5.4 0 8.1 2.7 10.5 5.1 2.2 2.2 4.1 4 7.9 4s5.7-1.9 7.9-4c2.4-2.4 5.1-5.1 10.5-5.1s8.1 2.7 10.5 5.1c2.2 2.2 4.1 4 7.9 4 3.9 0 5.7-1.9 7.9-4 2.4-2.4 5.1-5.1 10.5-5.1s8.1 2.7 10.5 5.1c2.2 2.2 4.1 4 7.9 4 3.9 0 5.7-1.9 7.9-4 2.4-2.4 5.1-5.1 10.5-5.1 1 0 1.8.8 1.8 1.8s-.8 1.8-1.8 1.8c-3.9 0-5.7 1.9-7.9 4-2.5 2.4-5.2 5.1-10.5 5.1z"/><path d="m76.3 44.5 3.6-6.6 3.6 6.6 6.6 3.6-6.6 3.6-3.6 6.7-3.6-6.7-6.7-3.6z"/><path d="m79.9 59.1c-.3 0-.5-.1-.6-.4l-3.5-6.5-6.5-3.5c-.2-.1-.4-.4-.4-.6s.1-.5.4-.6l6.5-3.5 3.5-6.4c.2-.5 1-.5 1.2 0l3.5 6.4 6.4 3.5c.2.1.4.4.4.6s-.1.5-.4.6l-6.4 3.5-3.5 6.5c-.1.3-.3.4-.6.4zm-8.8-11 5.5 3c.1.1.2.2.3.3l3 5.5 3-5.5c.1-.1.2-.2.3-.3l5.5-3-5.5-3c-.1-.1-.2-.2-.3-.3l-3-5.5-3 5.5c-.1.1-.2.2-.3.3z"/><path d="m76.3 180.8 3.6-6.6 3.6 6.6 6.6 3.6-6.6 3.7-3.6 6.6-3.6-6.6-6.7-3.7z"/><path d="m79.9 195.4c-.3 0-.5-.1-.6-.4l-3.5-6.4-6.5-3.6c-.2-.1-.4-.4-.4-.6s.1-.5.4-.6l6.5-3.5 3.5-6.4c.2-.5 1-.5 1.2 0l3.5 6.4 6.4 3.5c.2.1.4.4.4.6s-.1.5-.4.6l-6.4 3.6-3.5 6.4c-.1.3-.3.4-.6.4zm-8.8-11 5.6 3.1c.1.1.2.2.3.3l3 5.5 3-5.5.3-.3 5.5-3.1-5.5-3c-.1-.1-.2-.2-.3-.3l-3-5.5-3 5.5c-.1.1-.2.2-.3.3z"/></g></svg>